<mxfile host="app.diagrams.net" modified="2023-03-22T14:02:49.230Z" agent="5.0 (Windows NT 10.0; Win64; x64) AppleWebKit/537.36 (KHTML, like Gecko) Chrome/111.0.0.0 Safari/537.36" etag="zZyEM3N-oKU-M1y_aPxJ" version="21.0.10" type="github">
  <diagram name="第 1 页" id="n8G7o3eAPn_Wvr_kKuBB">
    <mxGraphModel dx="1221" dy="743" grid="1" gridSize="10" guides="1" tooltips="1" connect="1" arrows="1" fold="1" page="1" pageScale="1" pageWidth="827" pageHeight="1169" math="0" shadow="0">
      <root>
        <mxCell id="0" />
        <mxCell id="1" parent="0" />
        <mxCell id="WLR_GNIUdRpMmE6UeqxM-1" value="App.vue" style="ellipse;whiteSpace=wrap;html=1;" vertex="1" parent="1">
          <mxGeometry x="250" y="290" width="80" height="50" as="geometry" />
        </mxCell>
        <mxCell id="WLR_GNIUdRpMmE6UeqxM-2" value="ComposeReivew" style="ellipse;whiteSpace=wrap;html=1;" vertex="1" parent="1">
          <mxGeometry x="230" y="160" width="110" height="60" as="geometry" />
        </mxCell>
      </root>
    </mxGraphModel>
  </diagram>
</mxfile>
